0
SECTION
2
HEADER
9
$INSUNITS
70
4
0
ENDSEC
0
SECTION
2
TABLES
0
TABLE
2
LTYPE
0
LTYPE
72
65
70
64
2
CONTINUOUS
3
______
73
0
40
0
0
ENDTAB
0
TABLE
2
LAYER
0
ENDTAB
0
ENDSEC
0
SECTION
2
ENTITIES
0
LINE
8
0
10
294.3408917
20
-233.1178602
11
307.51626
21
-247.2942882
0
LINE
8
0
10
318.2610234
20
-248.1836346
11
342.1247306
21
-229.7842947
0
LINE
8
0
10
346.1862139
20
-228.1622895
11
404.3688194
21
-222.142524
0
LINE
8
0
10
411.5455074
20
-214.1850019
11
411.5455074
21
-171.5273716
0
LINE
8
0
10
407.0157523
20
-164.3192234
11
385.7260679
21
-154.0696528
0
LINE
8
0
10
384.0988198
20
-153.4929849
11
364.5256025
21
-148.8591717
0
LINE
8
0
10
361.4311296
20
-148.7424812
11
343.9519185
21
-151.5109163
0
LINE
8
0
10
342.5523281
20
-151.8644532
11
305.7577876
21
-164.7877674
0
LINE
8
0
10
304.7700148
20
-165.0649785
11
287.6661502
21
-168.7005172
0
LINE
8
0
10
281.504263
20
-178.1889916
11
292.3756791
21
-229.3349833
0
ARC
8
0
10
313.3762282
20
-241.8481177
40
8
50
222.9039458
51
307.6328571
0
ARC
8
0
10
347.0095259
20
-236.1198116
40
8
50
95.9069962
51
127.6328571
0
ARC
8
0
10
403.5455074
20
-214.1850019
40
8
50
275.9069962
51
0
0
ARC
8
0
10
403.5455074
20
-171.5273716
40
8
50
0
51
64.2922723
0
ARC
8
0
10
382.255823
20
-161.277801
40
8
50
64.2922723
51
76.6808727
0
ARC
8
0
10
362.6826056
20
-156.6439879
40
8
50
76.6808727
51
99.0000023
0
ARC
8
0
10
345.2033945
20
-159.4124229
40
8
50
99.0000023
51
109.352758
0
ARC
8
0
10
303.1067212
20
-157.2397977
40
8
50
282.0000005
51
289.352758
0
ARC
8
0
10
289.3294438
20
-176.525698
40
8
50
102.0000005
51
192.0000005
0
ARC
8
0
10
300.2008599
20
-227.6716897
40
8
50
192.0000005
51
222.9039458
0
LINE
8
0
10
390.7955074
20
-218.25
11
408.2955074
21
-218.25
0
LINE
8
0
10
408.2955074
20
-218.25
11
408.2955074
21
-201.75
0
LINE
8
0
10
408.2955074
20
-201.75
11
390.7955074
21
-201.75
0
LINE
8
0
10
390.7955074
20
-201.75
11
390.7955074
21
-218.25
0
LINE
8
0
10
390.7955074
20
-201.25
11
408.2955074
21
-201.25
0
LINE
8
0
10
408.2955074
20
-201.25
11
408.2955074
21
-184.75
0
LINE
8
0
10
408.2955074
20
-184.75
11
390.7955074
21
-184.75
0
LINE
8
0
10
390.7955074
20
-184.75
11
390.7955074
21
-201.25
0
LINE
8
0
10
390.7955074
20
-184.25
11
408.2955074
21
-184.25
0
LINE
8
0
10
408.2955074
20
-184.25
11
408.2955074
21
-167.75
0
LINE
8
0
10
408.2955074
20
-167.75
11
390.7955074
21
-167.75
0
LINE
8
0
10
390.7955074
20
-167.75
11
390.7955074
21
-184.25
0
LINE
8
0
10
371.7058006
20
-207.1194297
11
389.1099338
21
-205.2901816
0
LINE
8
0
10
389.1099338
20
-205.2901816
11
387.3852142
21
-188.8805703
0
LINE
8
0
10
387.3852142
20
-188.8805703
11
369.981081
21
-190.7098184
0
LINE
8
0
10
369.981081
20
-190.7098184
11
371.7058006
21
-207.1194297
0
LINE
8
0
10
369.9288167
20
-190.2125575
11
387.3329499
21
-188.3833094
0
LINE
8
0
10
387.3329499
20
-188.3833094
11
385.6082303
21
-171.9736981
0
LINE
8
0
10
385.6082303
20
-171.9736981
11
368.2040971
21
-173.8029462
0
LINE
8
0
10
368.2040971
20
-173.8029462
11
369.9288167
21
-190.2125575
0
LINE
8
0
10
368.1518328
20
-173.3056853
11
385.555966
21
-171.4764372
0
LINE
8
0
10
385.555966
20
-171.4764372
11
383.8312464
21
-155.0668259
0
LINE
8
0
10
383.8312464
20
-155.0668259
11
366.4271132
21
-156.896074
0
LINE
8
0
10
366.4271132
20
-156.896074
11
368.1518328
21
-173.3056853
0
LINE
8
0
10
352.5662035
20
-202.5416179
11
369.8507494
21
-199.8040147
0
LINE
8
0
10
369.8507494
20
-199.8040147
11
367.2695807
21
-183.5071571
0
LINE
8
0
10
367.2695807
20
-183.5071571
11
349.9850348
21
-186.2447603
0
LINE
8
0
10
349.9850348
20
-186.2447603
11
352.5662035
21
-202.5416179
0
LINE
8
0
10
349.9068176
20
-185.7509161
11
367.1913635
21
-183.0133129
0
LINE
8
0
10
367.1913635
20
-183.0133129
11
364.6101948
21
-166.7164553
0
LINE
8
0
10
364.6101948
20
-166.7164553
11
347.3256489
21
-169.4540585
0
LINE
8
0
10
347.3256489
20
-169.4540585
11
349.9068176
21
-185.7509161
0
LINE
8
0
10
347.2474317
20
-168.9602143
11
364.5319776
21
-166.2226111
0
LINE
8
0
10
364.5319776
20
-166.2226111
11
361.9508089
21
-149.9257535
0
LINE
8
0
10
361.9508089
20
-149.9257535
11
344.666263
21
-152.6633567
0
LINE
8
0
10
344.666263
20
-152.6633567
11
347.2474317
21
-168.9602143
0
LINE
8
0
10
334.9600256
20
-209.6841118
11
352.1385013
21
-206.3449544
0
LINE
8
0
10
352.1385013
20
-206.3449544
11
348.9901528
21
-190.1481058
0
LINE
8
0
10
348.9901528
20
-190.1481058
11
331.8116771
21
-193.4872632
0
LINE
8
0
10
331.8116771
20
-193.4872632
11
334.9600256
21
-209.6841118
0
LINE
8
0
10
331.7162727
20
-192.9964497
11
348.8947484
21
-189.6572923
0
LINE
8
0
10
348.8947484
20
-189.6572923
11
345.7463999
21
-173.4604437
0
LINE
8
0
10
345.7463999
20
-173.4604437
11
328.5679242
21
-176.7996011
0
LINE
8
0
10
328.5679242
20
-176.7996011
11
331.7162727
21
-192.9964497
0
LINE
8
0
10
328.4725198
20
-176.3087876
11
345.6509955
21
-172.9696302
0
LINE
8
0
10
345.6509955
20
-172.9696302
11
342.502647
21
-156.7727816
0
LINE
8
0
10
342.502647
20
-156.7727816
11
325.3241713
21
-160.111939
0
LINE
8
0
10
325.3241713
20
-160.111939
11
328.4725198
21
-176.3087876
0
LINE
8
0
10
317.2549215
20
-215.3173554
11
334.3725046
21
-211.6789008
0
LINE
8
0
10
334.3725046
20
-211.6789008
11
330.9419617
21
-195.5394654
0
LINE
8
0
10
330.9419617
20
-195.5394654
11
313.8243786
21
-199.17792
0
LINE
8
0
10
313.8243786
20
-199.17792
11
317.2549215
21
-215.3173554
0
LINE
8
0
10
313.7204228
20
-198.6888462
11
330.8380059
21
-195.0503916
0
LINE
8
0
10
330.8380059
20
-195.0503916
11
327.407463
21
-178.9109562
0
LINE
8
0
10
327.407463
20
-178.9109562
11
310.2898799
21
-182.5494108
0
LINE
8
0
10
310.2898799
20
-182.5494108
11
313.7204228
21
-198.6888462
0
LINE
8
0
10
310.1859241
20
-182.060337
11
327.3035072
21
-178.4218824
0
LINE
8
0
10
327.3035072
20
-178.4218824
11
323.8729643
21
-162.282447
0
LINE
8
0
10
323.8729643
20
-162.282447
11
306.7553812
21
-165.9209016
0
LINE
8
0
10
306.7553812
20
-165.9209016
11
310.1859241
21
-182.060337
0
LINE
8
0
10
326.6511589
20
-235.7948039
11
342.2437731
21
-227.8499702
0
LINE
8
0
10
342.2437731
20
-227.8499702
11
334.7529299
21
-213.1483625
0
LINE
8
0
10
334.7529299
20
-213.1483625
11
319.1603157
21
-221.0931962
0
LINE
8
0
10
319.1603157
20
-221.0931962
11
326.6511589
21
-235.7948039
0
LINE
8
0
10
312.790564
20
-248.1229313
11
325.7955984
21
-236.4131457
0
LINE
8
0
10
325.7955984
20
-236.4131457
11
314.7549434
21
-224.1512561
0
LINE
8
0
10
314.7549434
20
-224.1512561
11
301.749909
21
-235.8610417
0
LINE
8
0
10
301.749909
20
-235.8610417
11
312.790564
21
-248.1229313
0
ENDSEC
0
EOF