0
SECTION
2
HEADER
9
$INSUNITS
70
4
0
ENDSEC
0
SECTION
2
TABLES
0
TABLE
2
LTYPE
0
LTYPE
72
65
70
64
2
CONTINUOUS
3
______
73
0
40
0
0
ENDTAB
0
TABLE
2
LAYER
0
ENDTAB
0
ENDSEC
0
SECTION
2
ENTITIES
0
LINE
8
0
10
110
20
-219.5
11
130
21
-219.5
0
LINE
8
0
10
130
20
-219.5
11
130
21
-206.5012863
0
LINE
8
0
10
110
20
-219.5
11
110
21
-166.5
0
LINE
8
0
10
130
20
-197.4759218
11
130
21
-166.5
0
LINE
8
0
10
130
20
-166.5
11
110
21
-166.5
0
LINE
8
0
10
130
20
-206.5012863
11
148.9521986
21
-208.4932426
0
LINE
8
0
10
148.9521986
20
-208.4932426
11
149.731838
21
-201.0754691
0
LINE
8
0
10
130
20
-197.4759218
11
134.6017692
21
-153.693013
0
LINE
8
0
10
152.698812
20
-172.8465977
11
154.4922072
21
-155.7835822
0
LINE
8
0
10
154.4922072
20
-155.7835822
11
134.6017692
21
-153.693013
0
LINE
8
0
10
149.731838
20
-201.0754691
11
166.6374252
21
-203.753051
0
LINE
8
0
10
152.698812
20
-172.8465977
11
156.5556311
21
-148.4956
0
LINE
8
0
10
174.2817032
20
-164.42665
11
176.3093979
21
-151.6242893
0
LINE
8
0
10
176.3093979
20
-151.6242893
11
156.5556311
21
-148.4956
0
LINE
8
0
10
165.9414609
20
-207.3334771
11
184.0697234
21
-210.8572544
0
LINE
8
0
10
166.6374252
20
-203.753051
11
165.9414609
21
-207.3334771
0
LINE
8
0
10
195.3351707
20
-160.9328105
11
195.6868813
21
-159.1234163
0
LINE
8
0
10
195.6868813
20
-159.1234163
11
176.0543376
21
-155.3072364
0
LINE
8
0
10
176.0543376
20
-155.3072364
11
174.2817032
21
-164.42665
0
LINE
8
0
10
188.5994072
20
-213.6851313
11
203.2533807
21
-216.7999295
0
LINE
8
0
10
203.2533807
20
-216.7999295
11
214.2727003
21
-164.9581067
0
LINE
8
0
10
184.0697234
20
-210.8572544
11
183.7209193
21
-212.4982485
0
LINE
8
0
10
214.2727003
20
-164.9581067
11
195.3351707
21
-160.9328105
0
LINE
8
0
10
175.620488
20
-228.3962402
11
192.5691202
21
-237.0319996
0
LINE
8
0
10
196.4775955
20
-231.5156473
11
202.066438
21
-220.5469262
0
LINE
8
0
10
202.066438
20
-220.5469262
11
188.5994072
21
-213.6851313
0
LINE
8
0
10
183.7209193
20
-212.4982485
11
175.620488
21
-228.3962402
0
LINE
8
0
10
192.5691202
20
-237.0319996
11
206.8474612
21
-249.8882756
0
LINE
8
0
10
206.8474612
20
-249.8882756
11
219.5609427
21
-235.7685239
0
LINE
8
0
10
219.5609427
20
-235.7685239
11
204.6980462
21
-222.3859118
0
LINE
8
0
10
204.6980462
20
-222.3859118
11
196.4775955
21
-231.5156473
0
LINE
8
0
10
389.5455074
20
-219.5
11
409.5455074
21
-219.5
0
LINE
8
0
10
409.5455074
20
-219.5
11
409.5455074
21
-166.5
0
LINE
8
0
10
389.5455074
20
-206.5012863
11
389.5455074
21
-219.5
0
LINE
8
0
10
389.5455074
20
-197.4759218
11
389.5455074
21
-166.5
0
LINE
8
0
10
409.5455074
20
-166.5
11
389.5455074
21
-166.5
0
LINE
8
0
10
370.5933088
20
-208.4932426
11
389.5455074
21
-206.5012863
0
LINE
8
0
10
384.9437382
20
-153.693013
11
389.5455074
21
-197.4759218
0
LINE
8
0
10
369.8136694
20
-201.0754691
11
370.5933088
21
-208.4932426
0
LINE
8
0
10
365.0533002
20
-155.7835822
11
366.8466954
21
-172.8465977
0
LINE
8
0
10
384.9437382
20
-153.693013
11
365.0533002
21
-155.7835822
0
LINE
8
0
10
352.9080822
20
-203.753051
11
369.8136694
21
-201.0754691
0
LINE
8
0
10
362.9898763
20
-148.4956
11
366.8466954
21
-172.8465977
0
LINE
8
0
10
362.9898763
20
-148.4956
11
343.2361095
21
-151.6242893
0
LINE
8
0
10
343.2361095
20
-151.6242893
11
345.2638042
21
-164.42665
0
LINE
8
0
10
335.475784
20
-210.8572544
11
353.6040465
21
-207.3334771
0
LINE
8
0
10
353.6040465
20
-207.3334771
11
352.9080822
21
-203.753051
0
LINE
8
0
10
345.2638042
20
-164.42665
11
343.4911698
21
-155.3072364
0
LINE
8
0
10
343.4911698
20
-155.3072364
11
323.8586261
21
-159.1234163
0
LINE
8
0
10
323.8586261
20
-159.1234163
11
324.2103367
21
-160.9328105
0
LINE
8
0
10
316.2921267
20
-216.7999295
11
330.9461002
21
-213.6851313
0
LINE
8
0
10
335.8245881
20
-212.4982485
11
335.475784
21
-210.8572544
0
LINE
8
0
10
305.2728071
20
-164.9581067
11
316.2921267
21
-216.7999295
0
LINE
8
0
10
324.2103367
20
-160.9328105
11
305.2728071
21
-164.9581067
0
LINE
8
0
10
326.9763872
20
-237.0319996
11
343.9250194
21
-228.3962402
0
LINE
8
0
10
343.9250194
20
-228.3962402
11
335.8245881
21
-212.4982485
0
LINE
8
0
10
330.9461002
20
-213.6851313
11
317.4790694
21
-220.5469262
0
LINE
8
0
10
317.4790694
20
-220.5469262
11
323.0679119
21
-231.5156473
0
LINE
8
0
10
312.6980462
20
-249.8882756
11
326.9763872
21
-237.0319996
0
LINE
8
0
10
323.0679119
20
-231.5156473
11
314.8474612
21
-222.3859118
0
LINE
8
0
10
314.8474612
20
-222.3859118
11
299.9845647
21
-235.7685239
0
LINE
8
0
10
299.9845647
20
-235.7685239
11
312.6980462
21
-249.8882756
0
ENDSEC
0
EOF